M48
; DRILL file {KiCad 7.0.1-0} date 2023 July 08, Saturday 08:54:50
; FORMAT={-:-/ absolute / metric / decimal}
; #@! TF.CreationDate,2023-07-08T08:54:50+09:00
; #@! TF.GenerationSoftware,Kicad,Pcbnew,7.0.1-0
; #@! TF.FileFunction,NonPlated,1,2,NPTH
FMAT,2
METRIC
; #@! TA.AperFunction,NonPlated,NPTH,ComponentDrill
T1C1.900
; #@! TA.AperFunction,NonPlated,NPTH,ComponentDrill
T2C3.000
; #@! TA.AperFunction,NonPlated,NPTH,ComponentDrill
T3C4.100
%
G90
G05
T1
X-252.488Y54.074
X-248.678Y111.224
X-246.43Y92.19
X-242.328Y54.074
X-239.43Y73.11
X-238.518Y111.224
X-236.27Y92.19
X-229.27Y73.11
X-227.915Y111.05
X-225.864Y91.503
X-219.069Y71.332
X-217.854Y109.636
X-215.803Y90.089
X-209.05Y108.398
X-209.008Y69.918
X-206.986Y88.871
X-202.871Y49.754
X-200.204Y68.681
X-198.989Y106.984
X-196.924Y87.457
X-192.81Y48.34
X-190.186Y105.747
X-190.143Y67.267
X-188.121Y86.22
X-183.96Y47.09
X-181.34Y66.029
X-180.125Y104.333
X-178.06Y84.806
X-173.899Y45.676
X-171.321Y103.096
X-171.279Y64.615
X-169.256Y83.568
X-165.101Y44.474
X-162.475Y63.378
X-161.26Y101.682
X-159.195Y82.154
X-155.04Y43.06
X-152.414Y61.964
X-137.386Y101.245
X-136.695Y62.862
X-134.021Y44.003
X-130.019Y83.043
X-127.325Y102.659
X-126.633Y64.276
X-123.959Y45.417
X-119.957Y84.457
X-118.521Y103.896
X-117.834Y65.509
X-115.131Y46.646
X-111.154Y85.694
X-108.46Y105.31
X-107.773Y66.923
X-105.07Y48.06
X-101.093Y87.108
X-99.657Y106.547
X-98.944Y68.179
X-96.271Y49.216
X-92.289Y88.346
X-89.596Y107.961
X-88.883Y69.593
X-86.21Y50.63
X-82.228Y89.76
X-80.792Y109.199
X-80.054Y70.819
X-73.425Y90.997
X-70.731Y110.613
X-69.993Y72.233
X-63.364Y92.411
X-60.5Y111.26
X-59.6Y73.09
X-52.654Y92.174
X-51.701Y54.074
X-50.34Y111.26
X-49.44Y73.09
X-42.494Y92.174
X-41.541Y54.074
T2
X-249.948Y48.994
X-246.138Y106.144
X-243.89Y87.11
X-243.598Y51.534
X-239.788Y108.684
X-237.54Y89.65
X-236.89Y68.03
X-230.54Y70.57
X-226.107Y105.666
X-224.056Y86.119
X-219.465Y107.297
X-217.414Y87.751
X-217.261Y65.948
X-210.619Y67.579
X-207.242Y103.014
X-205.177Y83.487
X-201.063Y44.37
X-200.6Y104.646
X-198.536Y85.118
X-198.396Y63.297
X-194.421Y46.001
X-191.754Y64.928
X-188.378Y100.363
X-186.313Y80.836
X-182.152Y41.706
X-181.736Y101.995
X-179.671Y82.467
X-179.532Y60.645
X-175.51Y43.337
X-172.89Y62.277
X-169.513Y97.712
X-167.448Y78.184
X-163.293Y39.09
X-162.871Y99.343
X-160.806Y79.816
X-160.667Y57.994
X-156.651Y40.721
X-154.025Y59.626
X-134.164Y96.568
X-133.472Y58.185
X-130.798Y39.326
X-128.229Y99.967
X-127.538Y61.584
X-126.796Y78.366
X-124.864Y42.725
X-120.862Y81.765
X-115.299Y99.219
X-114.612Y60.832
X-111.909Y41.969
X-109.364Y102.618
X-108.677Y64.231
X-107.932Y81.017
X-105.974Y45.368
X-101.997Y84.416
X-96.435Y101.87
X-95.722Y63.502
X-93.049Y44.539
X-90.5Y105.269
X-89.787Y66.901
X-89.067Y83.668
X-87.114Y47.938
X-83.132Y87.067
X-77.57Y104.521
X-76.832Y66.142
X-71.635Y107.921
X-70.897Y69.541
X-70.202Y86.32
X-64.268Y89.719
X-57.96Y106.18
X-57.06Y68.01
X-51.61Y108.72
X-50.71Y70.55
X-50.114Y87.094
X-49.161Y48.994
X-43.764Y89.634
X-42.811Y51.534
T3
X-247.408Y54.074
X-243.598Y111.224
X-241.35Y92.19
X-234.35Y73.11
X-222.884Y110.343
X-220.833Y90.796
X-214.039Y70.625
X-204.02Y107.691
X-201.955Y88.164
X-197.841Y49.047
X-195.174Y67.974
X-185.155Y105.04
X-183.09Y85.513
X-178.929Y46.383
X-176.309Y65.322
X-166.291Y102.389
X-164.226Y82.861
X-160.071Y43.767
X-157.445Y62.671
X-132.355Y101.952
X-131.664Y63.569
X-128.99Y44.71
X-124.988Y83.75
X-113.491Y104.603
X-112.803Y66.216
X-110.101Y47.353
X-106.123Y86.401
X-94.626Y107.254
X-93.913Y68.886
X-91.241Y49.923
X-87.259Y89.053
X-75.762Y109.906
X-75.023Y71.526
X-68.394Y91.704
X-55.42Y111.26
X-54.52Y73.09
X-47.574Y92.174
X-46.621Y54.074
T0
M30
